<svg xmlns="http://www.w3.org/2000/svg" viewBox="0 0 760 300" role="img" aria-labelledby="title desc">
  <title id="title">Luu y sau khi thanh lap cong ty</title>
  <desc id="desc">Minh hoa lich thue, hoa don, chu ky so va bao cao sau thanh lap.</desc>
  <rect width="760" height="300" rx="24" fill="#fff"/>
  <rect x="60" y="68" width="210" height="176" rx="18" fill="#fdf5f5" stroke="#eadcdc" stroke-width="2"/>
  <rect x="60" y="68" width="210" height="48" rx="18" fill="#7a2828"/>
  <path d="M94 96h142" stroke="#fff" stroke-width="8" stroke-linecap="round" opacity=".8"/>
  <g fill="#d4af37">
    <circle cx="102" cy="148" r="11"/>
    <circle cx="150" cy="148" r="11"/>
    <circle cx="198" cy="148" r="11"/>
    <circle cx="102" cy="190" r="11"/>
    <circle cx="150" cy="190" r="11"/>
    <circle cx="198" cy="190" r="11"/>
  </g>
  <rect x="332" y="54" width="164" height="204" rx="18" fill="#fdf5f5" stroke="#7a2828" stroke-width="4"/>
  <path d="M370 98h88M370 132h72M370 166h88" stroke="#7a2828" stroke-width="9" stroke-linecap="round"/>
  <path d="M370 210h50" stroke="#d4af37" stroke-width="10" stroke-linecap="round"/>
  <circle cx="476" cy="214" r="24" fill="#d4af37"/>
  <path d="M465 215l8 8 18-24" fill="none" stroke="#fff" stroke-width="5" stroke-linecap="round" stroke-linejoin="round"/>
  <rect x="548" y="92" width="138" height="132" rx="18" fill="#fdf5f5" stroke="#eadcdc" stroke-width="2"/>
  <path d="M586 170c0-18 14-32 31-32s31 14 31 32" fill="none" stroke="#7a2828" stroke-width="9" stroke-linecap="round"/>
  <path d="M586 170v28h62v-28" fill="none" stroke="#7a2828" stroke-width="9" stroke-linejoin="round"/>
  <path d="M617 108v30" stroke="#d4af37" stroke-width="10" stroke-linecap="round"/>
  <circle cx="708" cy="74" r="24" fill="#7a2828" opacity=".08"/>
  <circle cx="292" cy="238" r="34" fill="#d4af37" opacity=".18"/>
</svg>
