<svg xmlns="http://www.w3.org/2000/svg" viewBox="0 0 760 300" role="img" aria-labelledby="title desc">
  <title id="title">Ho so va dieu kien dang ky doanh nghiep</title>
  <desc id="desc">Minh hoa ho so, giay to ca nhan va danh sach dieu kien thanh lap cong ty.</desc>
  <rect width="760" height="300" rx="24" fill="#fdf5f5"/>
  <rect x="82" y="78" width="208" height="158" rx="18" fill="#fff" stroke="#eadcdc" stroke-width="2"/>
  <path d="M116 116h112M116 146h134M116 176h92" stroke="#7a2828" stroke-width="10" stroke-linecap="round" opacity=".9"/>
  <path d="M116 204h134" stroke="#d4af37" stroke-width="10" stroke-linecap="round"/>
  <rect x="348" y="56" width="174" height="194" rx="18" fill="#fff" stroke="#7a2828" stroke-width="4"/>
  <circle cx="435" cy="114" r="28" fill="#7a2828" opacity=".12"/>
  <path d="M392 166h86M392 194h68" stroke="#7a2828" stroke-width="9" stroke-linecap="round"/>
  <rect x="536" y="104" width="134" height="116" rx="18" fill="#fff" stroke="#eadcdc" stroke-width="2"/>
  <circle cx="576" cy="144" r="18" fill="#d4af37"/>
  <path d="M568 144l7 7 14-18" fill="none" stroke="#fff" stroke-width="5" stroke-linecap="round" stroke-linejoin="round"/>
  <circle cx="576" cy="184" r="18" fill="#7a2828"/>
  <path d="M568 184l7 7 14-18" fill="none" stroke="#fff" stroke-width="5" stroke-linecap="round" stroke-linejoin="round"/>
  <path d="M606 144h34M606 184h26" stroke="#7a2828" stroke-width="8" stroke-linecap="round" opacity=".65"/>
  <path d="M303 154h40" stroke="#d4af37" stroke-width="8" stroke-linecap="round"/>
  <circle cx="684" cy="72" r="34" fill="#d4af37" opacity=".22"/>
  <circle cx="96" cy="238" r="26" fill="#7a2828" opacity=".08"/>
</svg>
